<svg version="1.1" id="Vrstva_1" xmlns="http://www.w3.org/2000/svg" x="0" y="0" viewBox="0 0 141.7 141.7" xml:space="preserve"><style>.st0{fill:#3d3937}</style><path class="st0" d="M108.4 57.2c.2.6.4 1.2.6 1.9l1.1-.3c-.2-.6-.4-1.3-.6-1.9l-.5.1-.6.2zM110 62.9c.1.6.2 1.3.3 1.9.1.6.2 1.3.2 1.9l1.2-.1c-.1-.7-.1-1.3-.2-2s-.2-1.3-.3-2l-1.2.3zM110.6 66.8c.1.6.1 1.3.1 2v1.9h1.2v-2c0-.7-.1-1.3-.1-2l-1.2.1z"/><path class="st0" d="M109.1 59.1c.2.6.4 1.2.5 1.9.2.6.3 1.3.4 1.9l1.2-.2c-.1-.6-.3-1.3-.4-1.9-.2-.6-.3-1.3-.5-1.9l-1.2.2zM109 82.4c-.2.6-.4 1.3-.6 1.9l.2.1h-.2l.6.2.5.2c.2-.6.4-1.3.6-1.9l-1.1-.5zM110 78.6c-.1.6-.3 1.3-.4 1.9-.2.6-.3 1.2-.5 1.9l1.1.3c.2-.6.4-1.3.5-1.9.2-.6.3-1.3.4-1.9l-1.1-.3zM110.6 74.7c-.1.6-.1 1.3-.2 1.9-.1.6-.2 1.3-.3 1.9l1.2.2c.1-.6.2-1.3.3-2 .1-.7.2-1.3.2-2h-1.2zM110.8 70.7v2c0 .6-.1 1.3-.1 1.9l1.2.1c.1-.7.1-1.3.1-2v-2h-1.2zM32.4 59c.2-.6.4-1.3.6-1.9l-.6-.1-.6-.2v.1c-.2.6-.4 1.2-.6 1.9l1.2.2z"/><path class="st0" d="M31.4 62.8c.1-.6.3-1.3.4-1.9.2-.6.3-1.3.5-1.9l-1.1-.3c-.2.6-.4 1.3-.5 1.9-.2.6-.3 1.3-.4 1.9l1.1.3zM30.8 74.6c-.1-.6-.1-1.3-.1-1.9v-1.9h-1.2v2c0 .7.1 1.3.1 2l1.2-.2zM31.4 78.5c-.1-.6-.2-1.3-.3-1.9-.1-.6-.2-1.3-.2-1.9l-1.2.1c.1.7.1 1.3.2 2s.2 1.3.3 1.9l1.2-.2z"/><path class="st0" d="M32.3 82.3c-.2-.6-.4-1.2-.5-1.9-.2-.6-.3-1.3-.4-1.9l-1.2.2c.1.6.3 1.3.4 1.9.2.6.3 1.3.5 1.9l1.2-.2zM33 84.3c-.2-.6-.4-1.2-.6-1.9l-1.1.3c.2.6.4 1.3.6 1.9l.6-.2.5-.1zM30.6 70.7v-1.9c0-.6.1-1.3.1-1.9l-1.2-.1c-.1.7-.1 1.3-.1 2v2l1.2-.1zM30.8 66.7c.1-.6.1-1.3.2-1.9.1-.6.2-1.3.3-1.9l-1.2-.2c-.1.6-.2 1.3-.3 2-.1.7-.2 1.3-.2 2h1.2z"/><g><path class="st0" d="M70.7 133.2c-34.4 0-62.4-28-62.4-62.4s28-62.4 62.4-62.4 62.4 28 62.4 62.4c.1 34.3-28 62.4-62.4 62.4zm0-123.7C36.9 9.5 9.5 36.9 9.5 70.7c0 33.8 27.5 61.2 61.2 61.2 33.8 0 61.2-27.5 61.2-61.2.1-33.8-27.4-61.2-61.2-61.2z"/></g><g><path class="st0" d="M70.7 130.1h-.1v-1.2h2v1.2h-1.9zm-2.1 0c-.7 0-1.4-.1-2-.1l.1-1.2c.7 0 1.3.1 2 .1l-.1 1.2zm6.1-.1l-.1-1.2c.7 0 1.3-.1 2-.2l.1 1.2c-.7.1-1.4.1-2 .2zm-10.2-.2c-.7-.1-1.3-.2-2-.2l.2-1.2c.7.1 1.3.2 2 .2l-.2 1.2zm14.2-.2l-.2-1.2c.7-.1 1.3-.2 2-.3l.2 1.2c-.7.1-1.3.2-2 .3zm-18.2-.3c-.7-.1-1.3-.2-2-.4l.2-1.2c.6.1 1.3.3 2 .4l-.2 1.2zm22.2-.4l-.2-1.2c.7-.1 1.3-.3 1.9-.4l.3 1.2c-.7.1-1.3.3-2 .4zm-26.2-.5c-.7-.2-1.3-.3-2-.5l.3-1.2c.6.2 1.3.3 1.9.5l-.2 1.2zm30.1-.4l-.3-1.2c.6-.2 1.3-.4 1.9-.6l.4 1.1c-.7.3-1.3.5-2 .7zm-34-.7c-.6-.2-1.3-.4-1.9-.6l.4-1.1c.6.2 1.3.4 1.9.6l-.4 1.1zm37.9-.6l-.4-1.1c.6-.2 1.2-.5 1.9-.7l.4 1.1c-.6.3-1.3.5-1.9.7zm-41.7-.7c-.6-.2-1.3-.5-1.9-.8l.5-1.1c.6.3 1.2.5 1.8.8l-.4 1.1zm45.5-.7l-.5-1.1c.6-.3 1.2-.5 1.8-.8l.5 1.1c-.6.2-1.2.5-1.8.8zm-49.2-1l-1.8-.9.6-1.1 1.8.9-.6 1.1zm52.9-.8l-.6-1.1 1.8-.9.6 1c-.6.4-1.2.7-1.8 1zm-56.5-1c-.6-.3-1.2-.7-1.7-1l.6-1c.6.3 1.1.7 1.7 1l-.6 1zm60-1l-.6-1c.6-.3 1.1-.7 1.7-1.1l.7 1c-.6.4-1.2.8-1.8 1.1zm-63.4-1.1c-.6-.4-1.1-.8-1.7-1.1l.7-1c.5.4 1.1.8 1.6 1.1l-.6 1zm66.8-1.1l-.7-1c.5-.4 1.1-.8 1.6-1.2l.7 1c-.5.4-1 .8-1.6 1.2zM34.8 118c-.5-.4-1.1-.8-1.6-1.3l.8-.9c.5.4 1 .8 1.6 1.2l-.8 1zm73.3-1.1l-.8-.9c.5-.4 1-.8 1.5-1.3l.8.9c-.4.4-.9.8-1.5 1.3zm-76.5-1.4c-.5-.4-1-.9-1.5-1.4l.8-.9c.5.5 1 .9 1.5 1.3l-.8 1zm79.6-1.3l-.8-.9c.5-.5 1-.9 1.4-1.4l.8.9c-.4.5-.9.9-1.4 1.4zm-82.5-1.5c-.5-.5-.9-1-1.4-1.5l.9-.8c.5.5.9 1 1.4 1.4l-.9.9zm85.4-1.4l-.9-.8c.5-.5.9-1 1.3-1.5l.9.8c-.4.5-.9 1-1.3 1.5zm-88.2-1.6c-.4-.5-.9-1-1.3-1.6l.9-.8c.4.5.8 1 1.3 1.5l-.9.9zm90.8-1.4l-.9-.8c.4-.5.8-1 1.2-1.6l1 .7c-.4.6-.8 1.2-1.3 1.7zm-93.4-1.7c-.4-.5-.8-1.1-1.2-1.6l1-.7c.4.5.8 1.1 1.2 1.6l-1 .7zm95.9-1.5l-1-.7c.4-.5.8-1.1 1.1-1.6l1 .7c-.3.4-.7 1-1.1 1.6zM21 103.3c-.4-.6-.7-1.1-1.1-1.7l1-.6c.3.6.7 1.1 1.1 1.7l-1 .6zm100.4-1.6l-1-.6c.3-.6.7-1.1 1-1.7l1 .6c-.3.5-.6 1.1-1 1.7zM18.9 99.8c-.3-.6-.7-1.2-1-1.8l1.1-.6.9 1.8-1 .6zm104.5-1.6l-1.1-.6.9-1.8 1.1.5c-.3.7-.6 1.3-.9 1.9zM17 96.2c-.3-.6-.6-1.2-.8-1.9l1.1-.5c.3.6.5 1.2.8 1.8l-1.1.6zm108.2-1.7l-1.1-.5c.3-.6.5-1.2.8-1.8l1.1.4c-.3.7-.6 1.3-.8 1.9zm-109.8-2c-.2-.6-.5-1.3-.7-1.9l1.1-.4c.2.6.5 1.2.7 1.9l-1.1.4zm111.3-1.8l-1.1-.4c.2-.6.4-1.3.6-1.9l1.1.4c-.2.7-.4 1.3-.6 1.9zM14 88.6c-.2-.6-.4-1.3-.6-1.9l1.2-.3c.2.6.4 1.3.6 1.9l-1.2.3zm113.9-1.7l-1.2-.3c.2-.6.3-1.3.5-1.9l1.2.3c-.1.6-.3 1.2-.5 1.9zM13 84.7c-.2-.7-.3-1.3-.4-2l1.2-.2c.1.7.3 1.3.4 1.9l-1.2.3zm115.9-1.8l-1.2-.2c.1-.6.3-1.3.4-2l1.2.2c-.2.7-.3 1.4-.4 2zM12.1 80.7c-.1-.7-.2-1.3-.3-2l1.2-.2c.1.7.2 1.3.3 2l-1.2.2zm117.5-1.8l-1.2-.2c.1-.7.2-1.3.2-2l1.2.1c-.1.8-.2 1.5-.2 2.1zm-118-2.2c-.1-.7-.1-1.3-.2-2l1.2-.1c0 .7.1 1.3.2 2l-1.2.1zM130 74.9l-1.2-.1c0-.7.1-1.3.1-2h1.2c0 .8-.1 1.4-.1 2.1zM11.3 72.7v-2l1.2-.1v2l-1.2.1zm118.8-1.8h-1.2v-.2-1.8h1.2v2zM12.5 68.7h-1.2c0-.7.1-1.4.1-2l1.2.1c0 .5-.1 1.2-.1 1.9zm116.3-1.8c0-.7-.1-1.3-.2-2l1.2-.1c.1.7.1 1.3.2 2l-1.2.1zm-116-2.2l-1.2-.1c.1-.7.1-1.3.2-2l1.2.2c-.1.6-.1 1.2-.2 1.9zm115.6-1.8c-.1-.7-.2-1.3-.3-2l1.2-.2c.1.7.2 1.3.3 2l-1.2.2zM13.3 60.8l-1.2-.2c.1-.7.2-1.3.4-2l1.2.2c-.1.7-.3 1.3-.4 2zM127.7 59c-.1-.6-.3-1.3-.4-1.9l1.2-.3c.2.7.3 1.3.4 2l-1.2.2zM14.1 56.9l-1.1-.3c.2-.7.3-1.3.5-2l1.2.3c-.2.7-.4 1.3-.6 2zm112.7-1.8c-.2-.6-.4-1.3-.6-1.9l1.1-.4c.2.6.4 1.3.6 1.9l-1.1.4zm-111.6-2l-1.1-.4c.2-.6.4-1.3.6-1.9l1.1.4c-.2.6-.4 1.2-.6 1.9zm110.4-1.7c-.2-.6-.5-1.3-.7-1.9l1.1-.4c.2.6.5 1.3.7 1.9l-1.1.4zM16.5 49.3l-1.1-.4c.2-.6.5-1.3.8-1.9l1.1.5c-.3.6-.5 1.2-.8 1.8zm107.7-1.7c-.3-.6-.5-1.2-.8-1.8l1.1-.5c.3.6.6 1.2.8 1.9l-1.1.4zM18.1 45.7l-1.1-.5.9-1.8 1.1.6c-.3.5-.6 1.1-.9 1.7zM122.5 44l-.9-1.8 1-.6c.3.6.7 1.2 1 1.8l-1.1.6zM20 42.2l-1-.6c.3-.6.7-1.2 1-1.7l1 .6c-.4.5-.7 1.1-1 1.7zm100.5-1.6c-.3-.6-.7-1.1-1.1-1.7l1-.7c.4.6.7 1.1 1.1 1.7l-1 .7zM22 38.8l-1-.7c.4-.6.8-1.1 1.1-1.7l1 .7c-.3.6-.7 1.1-1.1 1.7zm96.4-1.6c-.4-.5-.8-1.1-1.2-1.6l1-.7c.4.5.8 1.1 1.2 1.6l-1 .7zm-94.1-1.7l-1-.7c.4-.5.8-1.1 1.3-1.6l.9.8-1.2 1.5zm91.7-1.4c-.4-.5-.8-1-1.3-1.5l.9-.8c.4.5.9 1 1.3 1.6l-.9.7zm-89.2-1.6l-.9-.8c.4-.5.9-1 1.4-1.5l.9.8c-.5.5-.9 1-1.4 1.5zm86.5-1.4c-.5-.5-.9-1-1.4-1.4l.9-.8c.5.5.9 1 1.4 1.5l-.9.7zm-83.8-1.6l-.8-.8c.5-.5 1-.9 1.5-1.4l.8.9c-.5.4-1 .9-1.5 1.3zm81-1.2c-.5-.5-1-.9-1.5-1.3l.8-.9c.5.4 1 .9 1.5 1.4l-.8.8zm-78.1-1.5l-.8-.9c.5-.4 1-.9 1.6-1.3l.8.9c-.6.5-1.1.9-1.6 1.3zm75.2-1.2c-.5-.4-1-.8-1.6-1.2l.7-1c.5.4 1.1.8 1.6 1.3l-.7.9zm-72.1-1.3l-.7-1c.5-.4 1.1-.8 1.6-1.2l.7 1c-.5.4-1.1.8-1.6 1.2zm68.9-1.1c-.5-.4-1.1-.8-1.6-1.1l.7-1c.6.4 1.1.8 1.7 1.1l-.8 1zM38.8 22l-.7-1c.6-.4 1.1-.7 1.7-1.1l.6 1c-.5.4-1.1.8-1.6 1.1zm62.3-1c-.6-.3-1.1-.7-1.7-1l.6-1c.6.3 1.2.7 1.7 1l-.6 1zm-58.9-1l-.6-1c.6-.3 1.2-.7 1.8-1l.6 1.1c-.7.2-1.3.5-1.8.9zm55.4-.9l-1.8-.9.5-1.1 1.8.9-.5 1.1zm-51.9-1l-.5-1.1c.6-.3 1.2-.6 1.8-.8l.5 1.1c-.6.3-1.2.5-1.8.8zm48.4-.7c-.6-.3-1.2-.5-1.8-.8l.4-1.1c.6.3 1.2.5 1.9.8l-.5 1.1zm-44.8-.9l-.4-1.1c.6-.2 1.3-.5 1.9-.7l.4 1.1c-.6.3-1.2.5-1.9.7zm41.1-.6c-.6-.2-1.3-.4-1.9-.6l.4-1.1c.6.2 1.3.4 1.9.7l-.4 1zm-37.3-.7l-.4-1.1c.6-.2 1.3-.4 1.9-.6l.3 1.2c-.5.1-1.2.3-1.8.5zm33.5-.5c-.6-.2-1.3-.3-1.9-.5L85 13c.7.2 1.3.3 2 .5l-.4 1.2zm-29.7-.6l-.3-1.1c.7-.2 1.3-.3 2-.4l.2 1.2c-.6 0-1.2.2-1.9.3zm25.8-.4c-.6-.1-1.3-.3-2-.4l.2-1.2c.7.1 1.3.2 2 .4l-.2 1.2zm-21.9-.4l-.2-1.2c.7-.1 1.3-.2 2-.3l.2 1.2c-.7.1-1.3.2-2 .3zm18-.2c-.7-.1-1.3-.2-2-.2l.1-1.2c.7.1 1.3.2 2 .2l-.1 1.2zm-14-.3l-.1-1.2c.7-.1 1.3-.1 2-.2l.1 1.2c-.7.1-1.4.1-2 .2zm10.1-.2c-.7 0-1.3-.1-2-.1v-1.2c.7 0 1.4.1 2 .1v1.2zm-6.2-.1v-1.2h2.2v1.2h-2.2z"/></g><g><path class="st0" d="M35.4 38.1l2-1.7 5.3 1.7-.8-5.5 2-1.7 7.3 8.5-1.9 1.6-4.8-5.6.7 5.7-5.4-1.6 4.7 5.5-1.8 1.6-7.3-8.5zM50.2 35.1c-1-2.3-.2-4.8 2-5.8 2.6-1.2 4.7.3 5.7 2.6.1.2.2.4.2.6l-5.5 2.4c.7.9 1.6 1.1 2.6.7.7-.3 1.2-.8 1.5-1.7l1.8.6c-.3 1.2-1.1 2.3-2.5 2.9-2.2 1-4.7.1-5.8-2.3zm5.3-3.1c-.6-.9-1.5-1.3-2.4-.9-.9.4-1.2 1.3-1 2.4l3.4-1.5zM58.6 27.2l2.4-.5.4 1.7c.2-1.3.8-2.2 2.3-2.4l.6 2.5h-.1c-1.6.4-2.3 1.5-1.9 3.5l.7 3.1-2.4.5-2-8.4zM65.9 35.9l.8-1.8c.9.5 1.8.8 2.9.7 1.7 0 2.4-.8 2.4-2.4V32c-.7.9-1.5 1.4-2.8 1.4-2 0-3.8-1.4-3.9-3.9 0-2.6 1.8-4 3.7-4.1 1.3 0 2.1.5 2.8 1.2v-1.1h2.4l.1 6.6c0 1.5-.3 2.7-1 3.4-.8.8-2 1.2-3.7 1.2-1.3.1-2.6-.2-3.7-.8zm6-6.5c0-1.2-.9-2-2.1-2-1.2 0-2.1.8-2 2 0 1.2.9 2 2.1 1.9 1.2.1 2.1-.7 2-1.9zM75.5 31.8c.4-1.9 2-2.4 4-1.9.8.2 1.4.5 2 .8v-.1c.2-1-.3-1.7-1.4-1.9-.9-.2-1.6-.2-2.4-.1l-.2-1.9c1-.2 2-.2 3.4.1 1.3.3 2.1.9 2.6 1.6.5.6.5 1.6.3 2.7l-1.1 4.8-2.3-.5.2-.9c-.7.5-1.6.7-2.8.5-1.6-.4-2.7-1.6-2.3-3.2zm5.6.7l.1-.4c-.4-.3-.9-.5-1.4-.7-1-.2-1.7 0-1.9.8-.1.6.3 1.1 1.1 1.3 1 .3 1.9-.2 2.1-1zM85.2 32.2c1.3-2.6 3.7-3.1 5.5-2.2 1.2.6 1.6 1.5 1.8 2.4l1.9-3.8 2.2 1.1-5.3 10.4-2.2-1.1.6-1.1c-.9.4-1.9.6-3 0-1.8-.9-2.8-3.1-1.5-5.7zm5.9 3.1c.7-1.3.3-2.6-.8-3.1-1-.5-2.3-.1-2.9 1.1-.7 1.3-.2 2.5.8 3.1 1 .5 2.2.1 2.9-1.1zM94.6 37.3c1.7-1.9 4.5-2 6.5-.2s2.1 4.6.5 6.4c-1.7 1.8-4.5 2-6.4.2-2.1-1.8-2.2-4.6-.6-6.4zm5.1 4.6c.9-1 .9-2.4-.1-3.3-1-.9-2.4-.7-3.2.2-.8.9-.9 2.4.1 3.3 1 1 2.4.8 3.2-.2z"/></g><g><path class="st0" d="M29.9 97.3l2.3.1c0 1.3.2 2.5 1 3.5.6.8 1.3 1 1.8.6s.5-.9-.3-2.7c-1-2.1-1.4-3.7.4-5 1.6-1.3 3.7-.8 5.1 1 1 1.3 1.5 2.7 1.5 4.1l-2.3.1c-.1-1.2-.4-2.2-.9-3s-1.2-.9-1.7-.5c-.6.5-.5 1 .4 2.8 1 2.1 1.1 3.7-.4 4.9-1.7 1.4-3.8.8-5.3-1.1-1.1-1.2-1.7-3-1.6-4.8zM42.1 101.2l1.9 1.5-.7 1c1-.3 2-.3 3 .5 1.6 1.2 2.2 3.6.4 5.9-1.7 2.3-4.2 2.4-5.8 1.2-1-.8-1.3-1.7-1.4-2.6l-2.2 2.9-1.9-1.5 6.7-8.9zm2.7 7.4c.9-1.2.7-2.5-.2-3.2-.9-.7-2.2-.5-3.1.6-.9 1.1-.7 2.5.2 3.1.9.8 2.2.7 3.1-.5zM48.7 111.3c1-2.3 3.4-3.4 5.7-2.5 2.6 1.1 3 3.7 2 5.9l-.3.6-5.5-2.4c-.2 1.1.3 1.9 1.3 2.4.8.3 1.4.3 2.3 0l.8 1.7c-1.1.6-2.4.7-3.9.1-2.3-1-3.4-3.4-2.4-5.8zm5.9 1.7c.3-1.1 0-2-.9-2.4-.9-.4-1.8 0-2.4.9l3.3 1.5zM58.6 115.2c.4-2.4 2.6-4.1 5.2-3.6 1.6.3 2.5 1 3.1 2l-1.8 1.3c-.4-.7-.9-1.1-1.8-1.3-1.2-.2-2.2.7-2.5 1.9-.2 1.3.4 2.5 1.7 2.7.8.1 1.4-.1 2.1-.5l1.1 1.7c-1 .7-2 1.2-3.7.9-2.3-.4-3.8-2.7-3.4-5.1zM68.7 112.3h2.4l-.2 8.6h-2.4l.2-8.6zm0-3.1h2.6v2.2h-2.6v-2.2zM73.6 118.5c-.3-1.9 1-2.9 3-3.2.9-.1 1.5-.1 2.1 0v-.1c-.1-1-.8-1.5-2-1.3-.9.1-1.5.4-2.3.8l-.9-1.7c.9-.5 1.8-1 3.2-1.2 1.3-.2 2.3 0 3 .5.7.5 1.1 1.4 1.3 2.6l.7 4.9-2.3.3-.1-.9c-.5.7-1.2 1.3-2.4 1.5-1.6.2-3.1-.5-3.3-2.2zm5.4-1.4l-.1-.4c-.4-.1-1-.2-1.6-.1-1 .2-1.6.7-1.5 1.4.1.6.7.9 1.5.8 1.2-.1 1.8-.8 1.7-1.7zM81.4 107.7l2.3-.7 3.6 11.1-2.3.7-3.6-11.1zM85.3 106.4l2.3-1 .9 2-2.3 1-.9-2zm1.3 2.8l2.2-1 3.5 7.8-2.2 1-3.5-7.8zM94.1 113.9V112c1.1.1 2.2-.2 2.8-.6.6-.4.7-.8.5-1.1-.3-.4-1.1-.1-2 .1-1.2.4-2.6.6-3.5-.8-.9-1.5-.3-3 1.2-4 .9-.6 2.1-.9 3.2-.9l.1 1.9c-1 0-1.9.2-2.4.6-.5.3-.6.7-.4 1 .3.4 1.1.2 2-.1 1.2-.3 2.7-.6 3.6.7 1 1.6.3 3.1-1.3 4.1-1 .8-2.3 1.2-3.8 1zM101.4 107.3l-2.7-3-.8.7-1.4-1.5.8-.7-1.5-1.6 1.8-1.6 1.5 1.6 1.5-1.4 1.4 1.5-1.5 1.4 2.5 2.7c.4.4.7.5 1.1.1.3-.3.6-.7.7-1l1.3 1.4c-.2.6-.5 1.1-1.1 1.7-1.1.9-2.2 1.2-3.6-.3zM106.3 102.7c-1.5-1.1-1.4-2.8-.1-4.4.5-.7 1-1.1 1.5-1.5l-.1-.1c-.8-.6-1.6-.4-2.4.5-.6.7-.8 1.4-1.1 2.2l-1.8-.6c.2-1 .6-1.9 1.5-3.1.8-1.1 1.7-1.6 2.5-1.7.9-.1 1.8.2 2.7.9l4 3-1.4 1.9-.7-.6c.2.9 0 1.8-.7 2.7-1 1.3-2.5 1.8-3.9.8zm2.9-4.8l-.3-.3c-.4.2-.8.6-1.2 1-.6.8-.7 1.6-.1 2.1.5.4 1.2.2 1.6-.4.8-.9.7-1.8 0-2.4z"/></g><g><path fill="#00a4b7" d="M84.5 84.5V57L70.7 70.7z"/></g><g><path fill="#83b627" d="M57 57v27.5l13.7-13.8z"/></g><g><path fill="#067935" d="M57 84.5h27.5L70.7 70.7z"/></g></svg>